<svg width="224" height="208" fill="none" xmlns="http://www.w3.org/2000/svg"><path d="M70.78 181.215c3.67-5.777 3.698-8.563-2.079-12.232-5.777-3.668-11.273-5.362-14.94.415-3.67 5.777-1.96 13.434 3.817 17.102 5.777 3.669 9.535.492 13.203-5.285zm89.602-1.905c4.284-6.746 4.318-10-2.429-14.284-6.747-4.284-13.165-6.263-17.449.484-4.284 6.747-2.288 15.689 4.459 19.973 6.747 4.284 11.135.574 15.419-6.173z" fill="#B7EB6E"/><path d="M39.712 64.919c-14.852-5.377-17.5-18.314-16.24-28.25.885-6.979 4.183-5.323 7.8.71 1.816 3.028 5.297 6.417 12.066 10.301 8.293 4.76 17.116 4.233 25.2 3.719 7.876-.501 9.899 7.064 2.85 10.612-8.31 4.182-19.628 7.27-31.677 2.908z" fill="#FFDDBF"/><path d="M167.206 189.697H30.816m-5.632 0h-9.496m-7.188 0H1.46m134.954-126.7c1.522 1.072 3.415 1.884 5.487 2.407m17.193-2.857c-1.413 1.147-3.109 2.002-4.95 2.585m-15.462 10.625c3.871-2.23 6.363-5.538 7.864-9.681m67.139-26.352c4.618.405 9.095-3.224 8.895-8.035-.177-4.263-3.949-7.566-8.425-7.377-3.458.145-6.325 2.333-7.368 5.287m6.898 10.125c-4.924-.432-8.569-5.392-6.898-10.125m6.898 10.125c-5.279 21.465-29.465 33.185-48.856 38.389-6.615 1.775-14.033 2.672-19.361 7.156-9.871 8.306.091 21.582 5.649 29.393m16.742-2.569c-5.786-.543-11.666.316-16.742 2.569m-80.743 43.005H59.618a7 7 0 01-3.053-.701L22.01 140.223a2 2 0 00-2.872 1.8v2.482a4 4 0 002.281 3.612l35.166 16.735a6.99 6.99 0 003.008.68h11.293m-.511-7.865c-14.338 0-30.464-20.546-17.661-35.049-5.65 9.637 4.283 23.629 14.321 24.267 11.912.747 17.693-11.505 22.002-20.494 1.58-3.316 4.828-9.526 8.5-17.141m-27.162 48.417h41.265M97.537 109.25c12.134-25.158 28.909-65.645 5.534-67.741-20.133-1.861-33.893 23.543-56.449 19.398-7.809-1.618-14.434-7.163-17.444-14.543-3.02-7.714-1.757-20.002 7.411-23.852 7.215-3.014 14.357 2.386 20.845 5.112 15.888 6.706 27.54-8.026 42.334-9.595 16.1-1.709 17.602 18.996 30.805 21.946 12.481 2.79 26.643.137 38.838-1.916 12.617-2.125 25.001-5.248 37.376-8.46M97.537 109.25h-11.53m11.53 0c23.173 0 48.182 22.201 37.353 48.417M78.128 109.25h-5.077m44.106 27.339c6.962 4.609 8.198 13.704 6.367 21.078m-17.878-14.65c5.876 2.587 7.39 9.078 5.993 14.65m33.111-16.094l2.115 14.736m8.082-17.48l3.46 17.12m-4.364-102.413c2.038-7.06 12.497-6.654 15.301-1.847m3.983-6.202c2.6-6.872 12.992-5.623 15.4-.606M76.835 86.188H57.434m-7.754 0h-6.236m49.683-10.057H72.208m-42.355 33.093h-7.04m36.92 0H39.91m30.975 56.308c-6.844 0-12.404 5.56-12.19 12.189a12.327 12.327 0 0012.403 11.976c6.844 0 12.19-5.56 12.19-12.19 0-6.629-5.56-12.189-12.403-11.975zm0 0h85.536m0-.006c-6.843 0-12.189 5.56-12.189 12.189a12.327 12.327 0 0012.403 11.976c6.843 0 12.19-5.56 12.19-12.19 0-6.629-5.561-11.975-12.404-11.975zm0 0v.006m-14.52-100.128c-2.525 5.368-6.251 5.523-9.658 8.73-3.899 3.67 0 8.671 4.841 7.798 8.386-1.512 13.52-9.837 17.06-16.8m-12.243.272c1.481.375 3.053.602 4.645.672m7.598-.944c-2.387.757-5.02 1.057-7.598.944m11.861 89.873c-3.465 2-8.421 2.403-11.542.36m11.542-.36c14.803-8.547-.853-32.242-7.29-41.287m-4.252 41.647c-15.975-10.452-10.88-34.931 4.252-41.647m-16.227 43.005h39.334c1.057 0 2.1-.24 3.052-.701l34.556-16.743a2 2 0 012.872 1.8v2.482a4 4 0 01-2.281 3.612l-35.166 16.735a6.986 6.986 0 01-3.008.68h-17.828m-21.531-7.865h-11.366m0 0h-11.885m-37.332 19.84c0 1.711-1.497 3.208-3.208 3.208s-3.208-1.497-3.208-3.208 1.497-3.208 3.208-3.208c1.71 0 3.208 1.497 3.208 3.208zm85.537-.005c0 1.711-1.497 3.208-3.208 3.208-1.71 0-3.207-1.497-3.207-3.208s1.497-3.208 3.207-3.208c1.711 0 3.208 1.497 3.208 3.208z" stroke="#071D2B" stroke-width="2.5" stroke-miterlimit="10" stroke-linecap="round" stroke-linejoin="round"/></svg>